#!OML:ASF H:\Dans Jumps\Project 1\Capture day 1\Session 1\subject.ASF
:FULLY-SPECIFIED
:DEGREES
461
root 0.828624 17.4715 2.24392 7.55118 -2.21829 -2.31073
lowerback 2.69867 0.349982 -0.0803467
upperback 4.34165 0.427269 1.63137
thorax 2.93547 0.181268 1.72199
lowerneck -12.3161 -0.342871 -1.51512
upperneck 30.5546 -0.309215 0.602335
head 12.0758 -0.239328 0.446719
rclavicle -6.26172e-015 -4.57205e-015
rhumerus -35.6858 -28.5003 -66.915
rradius 17.8589
rwrist 47.946
rhand -18.1049 -25.6419
rfingers 7.12502
rthumb 8.16907 -55.464
lclavicle -6.26172e-015 -4.57205e-015
lhumerus -23.7794 2.80537 86.1344
lradius 16.8409
lwrist 4.53174
lhand -26.2495 -5.04686
lfingers 7.12502
lthumb 0.304815 24.9327
rfemur -22.1294 -1.53725 21.124
rtibia 30.6217
rfoot -14.6142 -0.334166
rtoes 12.8235
lfemur -22.2752 6.73377 -18.0317
ltibia 29.9608
lfoot -11.7217 5.63449
ltoes -4.84195
462
root 0.82293 17.4774 2.25896 7.57524 -2.1722 -2.31182
lowerback 2.66326 0.344547 -0.0895437
upperback 4.32414 0.419882 1.63601
thorax 2.93736 0.17731 1.73207
lowerneck -12.3173 -0.33632 -1.53152
upperneck 30.5779 -0.295869 0.604399
head 12.0853 -0.234991 0.452285
rclavicle 2.33572e-015 -5.96354e-016
rhumerus -35.3896 -28.1667 -67.3979
rradius 17.9228
rwrist 47.643
rhand -18.095 -25.5448
rfingers 7.12502
rthumb 8.17865 -55.3665
lclavicle 2.33572e-015 -5.96354e-016
lhumerus -23.6462 2.71043 86.1203
lradius 16.9571
lwrist 4.64437
lhand -26.2252 -4.91006
lfingers 7.12502
lthumb 0.328211 25.0694
rfemur -22.0026 -1.53421 21.1418
rtibia 30.4516
rfoot -14.5885 -0.36279
rtoes 12.9116
lfemur -22.1616 6.67808 -18.0041
ltibia 29.7949
lfoot -11.6818 5.64242
ltoes -4.85091
463
root 0.817281 17.4832 2.27381 7.59825 -2.12853 -2.31105
lowerback 2.62382 0.338866 -0.103266
upperback 4.30666 0.412106 1.64091
thorax 2.94154 0.173006 1.74497
lowerneck -12.3234 -0.32874 -1.54811
upperneck 30.6039 -0.281694 0.608891
head 12.0969 -0.230021 0.458921
rclavicle -1.63997e-015 1.39149e-014
rhumerus -35.0668 -27.864 -67.8789
rradius 17.9912
rwrist 47.318
rhand -18.1017 -25.4721
rfingers 7.12502
rthumb 8.17217 -55.2941
lclavicle -1.63997e-015 1.39149e-014
lhumerus -23.5182 2.62708 86.1035
lradius 17.0645
lwrist 4.7574
lhand -26.302 -4.98148
lfingers 7.12502
lthumb 0.254022 24.9981
rfemur -21.8779 -1.53861 21.1581
rtibia 30.2855
rfoot -14.5637 -0.381949
rtoes 13.0098
lfemur -22.0468 6.62639 -17.979
ltibia 29.6285
lfoot -11.6436 5.64887
ltoes -4.86031
464
root 0.811625 17.489 2.28848 7.62062 -2.08621 -2.3128
lowerback 2.58088 0.332539 -0.117696
upperback 4.28877 0.403406 1.64782
thorax 2.94727 0.168179 1.76038
lowerneck -12.326 -0.319426 -1.56333
upperneck 30.6262 -0.264946 0.611776
head 12.1062 -0.223952 0.465058
rclavicle -8.74653e-015 -3.37934e-015
rhumerus -34.7228 -27.5961 -68.3517
rradius 18.0617
rwrist 46.999
rhand -18.1341 -25.4206
rfingers 7.12502
rthumb 8.14095 -55.2438
lclavicle -8.74653e-015 -3.37934e-015
lhumerus -23.3948 2.5668 86.0804
lradius 17.1638
lwrist 4.85482
lhand -26.4102 -5.07244
lfingers 7.12502
lthumb 0.149524 24.9073
rfemur -21.7548 -1.5482 21.178
rtibia 30.1221
rfoot -14.5392 -0.394998
rtoes 13.1032
lfemur -21.9317 6.57914 -17.9512
ltibia 29.4621
lfoot -11.6057 5.65212
ltoes -4.86482
465
root 0.806138 17.4949 2.30302 7.64415 -2.04596 -2.31425
lowerback 2.53209 0.326219 -0.133313
upperback 4.26957 0.394676 1.65541
thorax 2.95496 0.163287 1.77716
lowerneck -12.3237 -0.309715 -1.57523
upperneck 30.6433 -0.247134 0.610087
head 12.1124 -0.217598 0.469028
rclavicle 7.30534e-015 9.93923e-016
rhumerus -34.3619 -27.3556 -68.8181
rradius 18.1389
rwrist 46.6831
rhand -18.1963 -25.3861
rfingers 7.12502
rthumb 8.08091 -55.2116
lclavicle 7.30534e-015 9.93923e-016
lhumerus -23.2758 2.51963 86.0542
lradius 17.2538
lwrist 4.96276
lhand -26.5951 -5.33719
lfingers 7.12502
lthumb -0.0290636 24.6425
rfemur -21.6348 -1.56681 21.1978
rtibia 29.9606
rfoot -14.5146 -0.399065
rtoes 13.1818
lfemur -21.8178 6.53545 -17.9247
ltibia 29.2959
lfoot -11.5704 5.6545
ltoes -4.86878
466
root 0.800821 17.5007 2.31737 7.66924 -2.00827 -2.32039
lowerback 2.47994 0.320018 -0.145092
upperback 4.24726 0.386097 1.66524
thorax 2.96131 0.158569 1.7941
lowerneck -12.3063 -0.298852 -1.58459
upperneck 30.6486 -0.226474 0.601676
head 12.1107 -0.210502 0.470372
rclavicle 3.37934e-015 7.15625e-015
rhumerus -33.9887 -27.1219 -69.286
rradius 18.2307
rwrist 46.3556
rhand -18.2848 -25.3782
rfingers 7.12502
rthumb 7.99544 -55.2069
lclavicle 3.37934e-015 7.15625e-015
lhumerus -23.1628 2.50253 86.018
lradius 17.3383
lwrist 5.05633
lhand -26.7164 -5.52807
lfingers 7.12502
lthumb -0.146151 24.4516
rfemur -21.5184 -1.58942 21.2226
rtibia 29.8
rfoot -14.4881 -0.395462
rtoes 13.2599
lfemur -21.7065 6.4945 -17.8938
ltibia 29.1303
lfoot -11.5362 5.65638
ltoes -4.86031
467
root 0.795662 17.5064 2.33147 7.69489 -1.97477 -2.32365
lowerback 2.42688 0.313817 -0.161559
upperback 4.22304 0.37752 1.67533
thorax 2.96619 0.153724 1.81392
lowerneck -12.2817 -0.287778 -1.59218
upperneck 30.6438 -0.205184 0.590248
head 12.1033 -0.203272 0.470316
rclavicle 5.1684e-015 1.98785e-014
rhumerus -33.6022 -26.9 -69.7535
rradius 18.3339
rwrist 46.0245
rhand -18.4015 -25.3907
rfingers 7.12502
rthumb 7.88279 -55.2238
lclavicle 5.1684e-015 1.98785e-014
lhumerus -23.0565 2.505 85.976
lradius 17.4159
lwrist 5.14669
lhand -26.8318 -5.69992
lfingers 7.12502
lthumb -0.257651 24.2797
rfemur -21.4058 -1.61156 21.2437
rtibia 29.6411
rfoot -14.46 -0.389188
rtoes 13.3312
lfemur -21.5966 6.45741 -17.8669
ltibia 28.965
lfoot -11.5027 5.65729
ltoes -4.85087
